<mxfile host="app.diagrams.net" modified="2020-12-02T02:46:47.168Z" agent="5.0 (Windows NT 10.0; Win64; x64) AppleWebKit/537.36 (KHTML, like Gecko) Chrome/87.0.4280.67 Safari/537.36 Edg/87.0.664.47" etag="5ZlBepq4Mb1_eLoWzGWA" version="13.10.5" type="github">
  <diagram id="9h8CFOCDP87hbLBySvGZ" name="Page-1">
    <mxGraphModel dx="1695" dy="482" grid="1" gridSize="10" guides="1" tooltips="1" connect="1" arrows="1" fold="1" page="1" pageScale="1" pageWidth="827" pageHeight="1169" math="0" shadow="0">
      <root>
        <mxCell id="0" />
        <mxCell id="1" parent="0" />
        <mxCell id="Er9e3PEWxxvfP_uzQ7v0-1" value="" style="points=[];aspect=fixed;html=1;align=center;shadow=0;dashed=0;image;image=img/lib/allied_telesis/computer_and_terminals/Personal_Computer.svg;" parent="1" vertex="1">
          <mxGeometry x="-46" y="78.2" width="45.6" height="61.800000000000004" as="geometry" />
        </mxCell>
        <mxCell id="Er9e3PEWxxvfP_uzQ7v0-9" value="" style="edgeStyle=orthogonalEdgeStyle;rounded=0;orthogonalLoop=1;jettySize=auto;html=1;" parent="1" source="Er9e3PEWxxvfP_uzQ7v0-3" target="Er9e3PEWxxvfP_uzQ7v0-4" edge="1">
          <mxGeometry relative="1" as="geometry" />
        </mxCell>
        <mxCell id="Er9e3PEWxxvfP_uzQ7v0-3" value="" style="dashed=0;outlineConnect=0;html=1;align=center;labelPosition=center;verticalLabelPosition=bottom;verticalAlign=top;shape=mxgraph.weblogos.aws_s3" parent="1" vertex="1">
          <mxGeometry x="700" y="260" width="80" height="68.2" as="geometry" />
        </mxCell>
        <mxCell id="Er9e3PEWxxvfP_uzQ7v0-10" style="edgeStyle=orthogonalEdgeStyle;rounded=0;orthogonalLoop=1;jettySize=auto;html=1;exitX=0.145;exitY=0.855;exitDx=0;exitDy=0;exitPerimeter=0;" parent="1" source="Er9e3PEWxxvfP_uzQ7v0-4" target="Er9e3PEWxxvfP_uzQ7v0-7" edge="1">
          <mxGeometry relative="1" as="geometry" />
        </mxCell>
        <mxCell id="Er9e3PEWxxvfP_uzQ7v0-11" style="edgeStyle=orthogonalEdgeStyle;rounded=0;orthogonalLoop=1;jettySize=auto;html=1;exitX=0.855;exitY=0.855;exitDx=0;exitDy=0;exitPerimeter=0;entryX=0.5;entryY=0;entryDx=0;entryDy=0;entryPerimeter=0;" parent="1" source="Er9e3PEWxxvfP_uzQ7v0-4" target="Er9e3PEWxxvfP_uzQ7v0-5" edge="1">
          <mxGeometry relative="1" as="geometry" />
        </mxCell>
        <mxCell id="Er9e3PEWxxvfP_uzQ7v0-4" value="" style="outlineConnect=0;dashed=0;verticalLabelPosition=bottom;verticalAlign=top;align=center;html=1;shape=mxgraph.aws3.lambda_function;fillColor=#F58534;gradientColor=none;" parent="1" vertex="1">
          <mxGeometry x="710" y="377" width="60" height="62" as="geometry" />
        </mxCell>
        <mxCell id="Er9e3PEWxxvfP_uzQ7v0-5" value="" style="outlineConnect=0;dashed=0;verticalLabelPosition=bottom;verticalAlign=top;align=center;html=1;shape=mxgraph.aws3.dynamo_db;fillColor=#2E73B8;gradientColor=none;" parent="1" vertex="1">
          <mxGeometry x="810" y="473" width="72" height="81" as="geometry" />
        </mxCell>
        <mxCell id="Er9e3PEWxxvfP_uzQ7v0-7" value="" style="outlineConnect=0;fontColor=#232F3E;gradientColor=none;fillColor=#3334B9;strokeColor=none;dashed=0;verticalLabelPosition=bottom;verticalAlign=top;align=center;html=1;fontSize=12;fontStyle=0;aspect=fixed;pointerEvents=1;shape=mxgraph.aws4.rds_instance;" parent="1" vertex="1">
          <mxGeometry x="590" y="473" width="78" height="78" as="geometry" />
        </mxCell>
        <mxCell id="Er9e3PEWxxvfP_uzQ7v0-14" value="" style="shape=image;html=1;verticalAlign=top;verticalLabelPosition=bottom;labelBackgroundColor=#ffffff;imageAspect=0;aspect=fixed;image=https://cdn3.iconfinder.com/data/icons/essential-flat/100/mobile-128.png" parent="1" vertex="1">
          <mxGeometry x="-72.19999999999999" y="230.2" width="98" height="98" as="geometry" />
        </mxCell>
        <mxCell id="Er9e3PEWxxvfP_uzQ7v0-15" value="" style="outlineConnect=0;fontColor=#232F3E;gradientColor=#945DF2;gradientDirection=north;fillColor=#5A30B5;strokeColor=#ffffff;dashed=0;verticalLabelPosition=bottom;verticalAlign=top;align=center;html=1;fontSize=12;fontStyle=0;aspect=fixed;shape=mxgraph.aws4.resourceIcon;resIcon=mxgraph.aws4.api_gateway;" parent="1" vertex="1">
          <mxGeometry x="280" y="270" width="78" height="78" as="geometry" />
        </mxCell>
        <mxCell id="UgFRVywHfd-tzTmDvYPv-1" value="" style="shape=image;verticalLabelPosition=bottom;labelBackgroundColor=#ffffff;verticalAlign=top;aspect=fixed;imageAspect=0;image=https://1.bp.blogspot.com/-3OAdyrabFpU/Wayo7MBZvOI/AAAAAAAAMw8/Dump7yCJkWYipRfqNwLjxdju_geSzeQggCLcBGAs/s1600/apache-kafka.png;" vertex="1" parent="1">
          <mxGeometry x="270" y="44.099999999999994" width="130" height="130" as="geometry" />
        </mxCell>
        <mxCell id="UgFRVywHfd-tzTmDvYPv-2" value="" style="shape=image;verticalLabelPosition=bottom;labelBackgroundColor=#ffffff;verticalAlign=top;aspect=fixed;imageAspect=0;image=https://www.esic.edu/sites/default/files/rethink/9b7e1b03-spark_0.png;" vertex="1" parent="1">
          <mxGeometry x="537.18" y="64.6" width="183.65" height="89" as="geometry" />
        </mxCell>
      </root>
    </mxGraphModel>
  </diagram>
</mxfile>
